<mxfile host="app.diagrams.net" modified="2021-02-28T21:12:26.884Z" agent="5.0 (Macintosh; Intel Mac OS X 11_2_2) AppleWebKit/537.36 (KHTML, like Gecko) Chrome/88.0.4324.192 Safari/537.36" etag="L753lEmBOZSla-xGZVlp" version="14.4.3" type="github" pages="2">
  <diagram id="6l4x8tIAcQ9BmKEiUvFo" name="Legacy">
    <mxGraphModel dx="2875" dy="974" grid="1" gridSize="10" guides="1" tooltips="1" connect="1" arrows="1" fold="1" page="1" pageScale="1" pageWidth="1169" pageHeight="827" math="0" shadow="0">
      <root>
        <mxCell id="Fl1p85hb_HAKtGp5xXsV-0" />
        <mxCell id="Fl1p85hb_HAKtGp5xXsV-1" parent="Fl1p85hb_HAKtGp5xXsV-0" />
        <mxCell id="2JB8KZPE9NtDmZh4CEFm-0" value="Browser or Mobile App" style="shape=umlFrame;tabWidth=110;tabHeight=30;tabPosition=left;html=1;boundedLbl=1;labelInHeader=1;width=140;height=30;" parent="Fl1p85hb_HAKtGp5xXsV-1" vertex="1">
          <mxGeometry x="-670" y="240" width="370" height="50" as="geometry" />
        </mxCell>
        <mxCell id="2JB8KZPE9NtDmZh4CEFm-1" value="" style="shape=image;html=1;verticalAlign=top;verticalLabelPosition=bottom;labelBackgroundColor=#ffffff;imageAspect=0;aspect=fixed;image=https://cdn3.iconfinder.com/data/icons/browsers-1/512/Browser_A-128.png" parent="Fl1p85hb_HAKtGp5xXsV-1" vertex="1">
          <mxGeometry x="-517" y="245" width="40" height="40" as="geometry" />
        </mxCell>
        <mxCell id="2JB8KZPE9NtDmZh4CEFm-2" value="" style="shape=image;html=1;verticalAlign=top;verticalLabelPosition=bottom;labelBackgroundColor=#ffffff;imageAspect=0;aspect=fixed;image=https://cdn3.iconfinder.com/data/icons/browsers-1/512/Browser_B-128.png" parent="Fl1p85hb_HAKtGp5xXsV-1" vertex="1">
          <mxGeometry x="-467" y="245" width="40" height="40" as="geometry" />
        </mxCell>
        <mxCell id="2JB8KZPE9NtDmZh4CEFm-3" value="" style="shape=image;html=1;verticalAlign=top;verticalLabelPosition=bottom;labelBackgroundColor=#ffffff;imageAspect=0;aspect=fixed;image=https://cdn3.iconfinder.com/data/icons/browsers-1/512/Browser_JJ-128.png" parent="Fl1p85hb_HAKtGp5xXsV-1" vertex="1">
          <mxGeometry x="-417" y="245" width="40" height="40" as="geometry" />
        </mxCell>
        <mxCell id="2JB8KZPE9NtDmZh4CEFm-4" value="" style="shape=image;html=1;verticalAlign=top;verticalLabelPosition=bottom;labelBackgroundColor=#ffffff;imageAspect=0;aspect=fixed;image=https://cdn3.iconfinder.com/data/icons/browsers-1/512/Browser_D-128.png" parent="Fl1p85hb_HAKtGp5xXsV-1" vertex="1">
          <mxGeometry x="-367" y="245" width="40" height="40" as="geometry" />
        </mxCell>
        <mxCell id="2JB8KZPE9NtDmZh4CEFm-5" value="Liferay Portal" style="shape=umlFrame;tabWidth=110;tabHeight=30;tabPosition=left;html=1;boundedLbl=1;labelInHeader=1;width=140;height=50;" parent="Fl1p85hb_HAKtGp5xXsV-1" vertex="1">
          <mxGeometry x="-790" y="310" width="680" height="80" as="geometry" />
        </mxCell>
        <mxCell id="2JB8KZPE9NtDmZh4CEFm-6" value="Portlet" style="shape=umlFrame;tabPosition=left;html=1;boundedLbl=1;labelInHeader=1;width=50;height=30;fontSize=8;" parent="Fl1p85hb_HAKtGp5xXsV-1" vertex="1">
          <mxGeometry x="-640" y="340" width="130" height="40" as="geometry" />
        </mxCell>
        <mxCell id="2JB8KZPE9NtDmZh4CEFm-7" value="Sales App" style="text;align=left;" parent="2JB8KZPE9NtDmZh4CEFm-6" vertex="1">
          <mxGeometry width="70" height="20" relative="1" as="geometry">
            <mxPoint x="54" y="10" as="offset" />
          </mxGeometry>
        </mxCell>
        <mxCell id="2JB8KZPE9NtDmZh4CEFm-8" value="Portlet" style="shape=umlFrame;tabPosition=left;html=1;boundedLbl=1;labelInHeader=1;width=50;height=30;fontSize=8;" parent="Fl1p85hb_HAKtGp5xXsV-1" vertex="1">
          <mxGeometry x="-472" y="340" width="150" height="40" as="geometry" />
        </mxCell>
        <mxCell id="2JB8KZPE9NtDmZh4CEFm-9" value="Benchmarking" style="text;align=left;" parent="2JB8KZPE9NtDmZh4CEFm-8" vertex="1">
          <mxGeometry width="70" height="20" relative="1" as="geometry">
            <mxPoint x="54" y="10" as="offset" />
          </mxGeometry>
        </mxCell>
        <mxCell id="2JB8KZPE9NtDmZh4CEFm-10" value="Portlet" style="shape=umlFrame;tabPosition=left;html=1;boundedLbl=1;labelInHeader=1;width=50;height=30;fontSize=8;" parent="Fl1p85hb_HAKtGp5xXsV-1" vertex="1">
          <mxGeometry x="-280" y="340" width="140" height="40" as="geometry" />
        </mxCell>
        <mxCell id="2JB8KZPE9NtDmZh4CEFm-11" value="MarketReports" style="text;align=left;" parent="2JB8KZPE9NtDmZh4CEFm-10" vertex="1">
          <mxGeometry width="70" height="20" relative="1" as="geometry">
            <mxPoint x="54" y="10" as="offset" />
          </mxGeometry>
        </mxCell>
        <mxCell id="2JB8KZPE9NtDmZh4CEFm-12" value="PingFederate" style="shape=image;html=1;verticalAlign=top;verticalLabelPosition=bottom;labelBackgroundColor=#ffffff;imageAspect=0;aspect=fixed;image=https://cdn2.iconfinder.com/data/icons/social-flat-buttons-3/512/ping-128.png;fontSize=8;align=center;" parent="Fl1p85hb_HAKtGp5xXsV-1" vertex="1">
          <mxGeometry x="-940" y="310" width="80" height="80" as="geometry" />
        </mxCell>
        <mxCell id="2JB8KZPE9NtDmZh4CEFm-13" value="ActiveDirectory" style="pointerEvents=1;shadow=0;dashed=0;html=1;strokeColor=none;fillColor=#505050;labelPosition=center;verticalLabelPosition=bottom;verticalAlign=top;outlineConnect=0;align=center;shape=mxgraph.office.security.active_directory;fontSize=8;" parent="Fl1p85hb_HAKtGp5xXsV-1" vertex="1">
          <mxGeometry x="-1110" y="400" width="100" height="80" as="geometry" />
        </mxCell>
        <mxCell id="2JB8KZPE9NtDmZh4CEFm-14" value="&lt;font style=&quot;font-size: 12px;&quot;&gt;{userInfo}&lt;/font&gt;" style="endArrow=open;html=1;endSize=12;startArrow=open;startSize=14;startFill=0;edgeStyle=orthogonalEdgeStyle;align=center;verticalAlign=bottom;endFill=0;strokeWidth=2;fillColor=#ffffff;fontSize=12;" parent="Fl1p85hb_HAKtGp5xXsV-1" source="2JB8KZPE9NtDmZh4CEFm-13" target="2JB8KZPE9NtDmZh4CEFm-12" edge="1">
          <mxGeometry y="3" relative="1" as="geometry">
            <mxPoint x="-1018" y="350" as="sourcePoint" />
            <mxPoint x="-948" y="350" as="targetPoint" />
          </mxGeometry>
        </mxCell>
        <mxCell id="2JB8KZPE9NtDmZh4CEFm-15" value="{token}" style="endArrow=open;html=1;endSize=12;startArrow=open;startSize=14;startFill=0;edgeStyle=orthogonalEdgeStyle;align=center;verticalAlign=bottom;endFill=0;strokeWidth=2;fillColor=#ffffff;fontSize=12;exitX=1;exitY=0.5;exitDx=0;exitDy=0;entryX=-0.002;entryY=0.503;entryDx=0;entryDy=0;entryPerimeter=0;" parent="Fl1p85hb_HAKtGp5xXsV-1" source="2JB8KZPE9NtDmZh4CEFm-12" target="2JB8KZPE9NtDmZh4CEFm-5" edge="1">
          <mxGeometry y="3" relative="1" as="geometry">
            <mxPoint x="-1008" y="360" as="sourcePoint" />
            <mxPoint x="-938" y="360" as="targetPoint" />
          </mxGeometry>
        </mxCell>
        <mxCell id="2JB8KZPE9NtDmZh4CEFm-52" value="Database Dup 1" style="strokeWidth=2;html=1;shape=mxgraph.flowchart.database;whiteSpace=wrap;fontSize=9;opacity=50;align=center;" parent="Fl1p85hb_HAKtGp5xXsV-1" vertex="1">
          <mxGeometry x="-628" y="470" width="100" height="140" as="geometry" />
        </mxCell>
        <mxCell id="2JB8KZPE9NtDmZh4CEFm-53" value="IDS Datamart" style="shape=datastore;whiteSpace=wrap;html=1;fontSize=9;opacity=50;align=center;" parent="Fl1p85hb_HAKtGp5xXsV-1" vertex="1">
          <mxGeometry x="-955" y="465" width="110" height="145" as="geometry" />
        </mxCell>
        <mxCell id="2JB8KZPE9NtDmZh4CEFm-54" value="{Data Refresh}" style="endArrow=open;html=1;endSize=12;startArrow=open;startSize=14;startFill=0;edgeStyle=orthogonalEdgeStyle;align=center;verticalAlign=bottom;endFill=0;strokeWidth=2;fillColor=#ffffff;fontSize=12;entryX=-0.012;entryY=0.574;entryDx=0;entryDy=0;entryPerimeter=0;dashed=1;exitX=1.011;exitY=0.567;exitDx=0;exitDy=0;exitPerimeter=0;" parent="Fl1p85hb_HAKtGp5xXsV-1" source="2JB8KZPE9NtDmZh4CEFm-53" target="2JB8KZPE9NtDmZh4CEFm-52" edge="1">
          <mxGeometry y="3" relative="1" as="geometry">
            <mxPoint x="-822" y="359.03999999999996" as="sourcePoint" />
            <mxPoint x="-641.3599999999999" y="359.67999999999984" as="targetPoint" />
          </mxGeometry>
        </mxCell>
        <mxCell id="2JB8KZPE9NtDmZh4CEFm-55" value="" style="endArrow=open;html=1;endSize=12;startArrow=open;startSize=14;startFill=0;edgeStyle=orthogonalEdgeStyle;align=center;verticalAlign=bottom;endFill=0;strokeWidth=2;fillColor=#ffffff;fontSize=12;exitX=0.174;exitY=1;exitDx=0;exitDy=0;exitPerimeter=0;entryX=0.5;entryY=0;entryDx=0;entryDy=0;entryPerimeter=0;" parent="Fl1p85hb_HAKtGp5xXsV-1" target="2JB8KZPE9NtDmZh4CEFm-52" edge="1">
          <mxGeometry x="0.2156" y="24" relative="1" as="geometry">
            <mxPoint x="-577.6800000000001" y="390" as="sourcePoint" />
            <mxPoint x="-105" y="480" as="targetPoint" />
            <mxPoint as="offset" />
            <Array as="points" />
          </mxGeometry>
        </mxCell>
        <mxCell id="2JB8KZPE9NtDmZh4CEFm-56" value="Database Dup 1" style="strokeWidth=2;html=1;shape=mxgraph.flowchart.database;whiteSpace=wrap;fontSize=9;opacity=50;align=center;" parent="Fl1p85hb_HAKtGp5xXsV-1" vertex="1">
          <mxGeometry x="-449" y="470" width="100" height="140" as="geometry" />
        </mxCell>
        <mxCell id="2JB8KZPE9NtDmZh4CEFm-57" value="Database Dup 1" style="strokeWidth=2;html=1;shape=mxgraph.flowchart.database;whiteSpace=wrap;fontSize=9;opacity=50;align=center;" parent="Fl1p85hb_HAKtGp5xXsV-1" vertex="1">
          <mxGeometry x="-252" y="470" width="100" height="140" as="geometry" />
        </mxCell>
        <mxCell id="2JB8KZPE9NtDmZh4CEFm-59" value="" style="endArrow=open;html=1;endSize=12;startArrow=open;startSize=14;startFill=0;edgeStyle=orthogonalEdgeStyle;align=center;verticalAlign=bottom;endFill=0;strokeWidth=2;fillColor=#ffffff;fontSize=12;exitX=0.574;exitY=1;exitDx=0;exitDy=0;exitPerimeter=0;" parent="Fl1p85hb_HAKtGp5xXsV-1" source="2JB8KZPE9NtDmZh4CEFm-5" target="2JB8KZPE9NtDmZh4CEFm-56" edge="1">
          <mxGeometry x="0.2156" y="24" relative="1" as="geometry">
            <mxPoint x="-557.6800000000001" y="410" as="sourcePoint" />
            <mxPoint x="-558" y="490" as="targetPoint" />
            <mxPoint as="offset" />
            <Array as="points" />
          </mxGeometry>
        </mxCell>
        <mxCell id="2JB8KZPE9NtDmZh4CEFm-60" value="" style="endArrow=open;html=1;endSize=12;startArrow=open;startSize=14;startFill=0;edgeStyle=orthogonalEdgeStyle;align=center;verticalAlign=bottom;endFill=0;strokeWidth=2;fillColor=#ffffff;fontSize=12;exitX=0.865;exitY=1.013;exitDx=0;exitDy=0;exitPerimeter=0;entryX=0.5;entryY=0;entryDx=0;entryDy=0;entryPerimeter=0;" parent="Fl1p85hb_HAKtGp5xXsV-1" source="2JB8KZPE9NtDmZh4CEFm-5" target="2JB8KZPE9NtDmZh4CEFm-57" edge="1">
          <mxGeometry x="0.2156" y="24" relative="1" as="geometry">
            <mxPoint x="-547.6800000000001" y="420" as="sourcePoint" />
            <mxPoint x="-548" y="500" as="targetPoint" />
            <mxPoint as="offset" />
            <Array as="points" />
          </mxGeometry>
        </mxCell>
        <mxCell id="sALHhPVBmPQq7sUsA8ky-0" value="&lt;font style=&quot;font-size: 12px;&quot;&gt;{userInfo}&lt;/font&gt;" style="endArrow=open;html=1;endSize=12;startArrow=open;startSize=14;startFill=0;edgeStyle=orthogonalEdgeStyle;align=center;verticalAlign=bottom;endFill=0;strokeWidth=2;fillColor=#ffffff;fontSize=12;" parent="Fl1p85hb_HAKtGp5xXsV-1" source="2JB8KZPE9NtDmZh4CEFm-13" target="2JB8KZPE9NtDmZh4CEFm-5" edge="1">
          <mxGeometry y="3" relative="1" as="geometry">
            <mxPoint x="-1008" y="360" as="sourcePoint" />
            <mxPoint x="-938" y="360" as="targetPoint" />
          </mxGeometry>
        </mxCell>
      </root>
    </mxGraphModel>
  </diagram>
  <diagram name="Roadmap 2020+" id="b5b7bab2-c9e2-2cf4-8b2a-24fd1a2a6d21">
    <mxGraphModel dx="4581" dy="1948" grid="1" gridSize="10" guides="1" tooltips="1" connect="1" arrows="1" fold="1" page="1" pageScale="1" pageWidth="1169" pageHeight="827" background="#ffffff" math="0" shadow="0">
      <root>
        <mxCell id="0" />
        <mxCell id="1" parent="0" />
        <mxCell id="BXFXok5KzH3ZuiNn4VCX-2" value="Browser or Mobile App" style="shape=umlFrame;tabWidth=110;tabHeight=30;tabPosition=left;html=1;boundedLbl=1;labelInHeader=1;width=140;height=30;" parent="1" vertex="1">
          <mxGeometry x="-680" y="40" width="370" height="50" as="geometry" />
        </mxCell>
        <mxCell id="BXFXok5KzH3ZuiNn4VCX-5" value="" style="shape=image;html=1;verticalAlign=top;verticalLabelPosition=bottom;labelBackgroundColor=#ffffff;imageAspect=0;aspect=fixed;image=https://cdn3.iconfinder.com/data/icons/browsers-1/512/Browser_A-128.png" parent="1" vertex="1">
          <mxGeometry x="-527" y="45" width="40" height="40" as="geometry" />
        </mxCell>
        <mxCell id="BXFXok5KzH3ZuiNn4VCX-6" value="" style="shape=image;html=1;verticalAlign=top;verticalLabelPosition=bottom;labelBackgroundColor=#ffffff;imageAspect=0;aspect=fixed;image=https://cdn3.iconfinder.com/data/icons/browsers-1/512/Browser_B-128.png" parent="1" vertex="1">
          <mxGeometry x="-477" y="45" width="40" height="40" as="geometry" />
        </mxCell>
        <mxCell id="BXFXok5KzH3ZuiNn4VCX-7" value="" style="shape=image;html=1;verticalAlign=top;verticalLabelPosition=bottom;labelBackgroundColor=#ffffff;imageAspect=0;aspect=fixed;image=https://cdn3.iconfinder.com/data/icons/browsers-1/512/Browser_JJ-128.png" parent="1" vertex="1">
          <mxGeometry x="-427" y="45" width="40" height="40" as="geometry" />
        </mxCell>
        <mxCell id="BXFXok5KzH3ZuiNn4VCX-8" value="" style="shape=image;html=1;verticalAlign=top;verticalLabelPosition=bottom;labelBackgroundColor=#ffffff;imageAspect=0;aspect=fixed;image=https://cdn3.iconfinder.com/data/icons/browsers-1/512/Browser_D-128.png" parent="1" vertex="1">
          <mxGeometry x="-377" y="45" width="40" height="40" as="geometry" />
        </mxCell>
        <mxCell id="BXFXok5KzH3ZuiNn4VCX-9" value="Consortium Insights&lt;br&gt;{Liferay Portal}" style="shape=umlFrame;tabWidth=110;tabHeight=30;tabPosition=left;html=1;boundedLbl=1;labelInHeader=1;width=140;height=50;" parent="1" vertex="1">
          <mxGeometry x="-800" y="110" width="680" height="80" as="geometry" />
        </mxCell>
        <mxCell id="BXFXok5KzH3ZuiNn4VCX-19" value="iFrame*" style="shape=umlFrame;tabPosition=left;html=1;boundedLbl=1;labelInHeader=1;width=50;height=30;fontSize=8;" parent="1" vertex="1">
          <mxGeometry x="-650" y="140" width="130" height="40" as="geometry" />
        </mxCell>
        <mxCell id="BXFXok5KzH3ZuiNn4VCX-20" value="Sales App" style="text;align=left;" parent="BXFXok5KzH3ZuiNn4VCX-19" vertex="1">
          <mxGeometry width="70" height="20" relative="1" as="geometry">
            <mxPoint x="54" y="10" as="offset" />
          </mxGeometry>
        </mxCell>
        <mxCell id="BXFXok5KzH3ZuiNn4VCX-21" value="iFrame*" style="shape=umlFrame;tabPosition=left;html=1;boundedLbl=1;labelInHeader=1;width=50;height=30;fontSize=8;" parent="1" vertex="1">
          <mxGeometry x="-482" y="140" width="150" height="40" as="geometry" />
        </mxCell>
        <mxCell id="BXFXok5KzH3ZuiNn4VCX-22" value="Benchmarking" style="text;align=left;" parent="BXFXok5KzH3ZuiNn4VCX-21" vertex="1">
          <mxGeometry width="70" height="20" relative="1" as="geometry">
            <mxPoint x="54" y="10" as="offset" />
          </mxGeometry>
        </mxCell>
        <mxCell id="BXFXok5KzH3ZuiNn4VCX-26" value="iFrame*" style="shape=umlFrame;tabPosition=left;html=1;boundedLbl=1;labelInHeader=1;width=50;height=30;fontSize=8;" parent="1" vertex="1">
          <mxGeometry x="-290" y="140" width="140" height="40" as="geometry" />
        </mxCell>
        <mxCell id="BXFXok5KzH3ZuiNn4VCX-27" value="MarketReports" style="text;align=left;" parent="BXFXok5KzH3ZuiNn4VCX-26" vertex="1">
          <mxGeometry width="70" height="20" relative="1" as="geometry">
            <mxPoint x="54" y="10" as="offset" />
          </mxGeometry>
        </mxCell>
        <mxCell id="BXFXok5KzH3ZuiNn4VCX-30" value="PingFederate" style="shape=image;html=1;verticalAlign=top;verticalLabelPosition=bottom;labelBackgroundColor=#ffffff;imageAspect=0;aspect=fixed;image=https://cdn2.iconfinder.com/data/icons/social-flat-buttons-3/512/ping-128.png;fontSize=8;align=center;" parent="1" vertex="1">
          <mxGeometry x="-950" y="110" width="80" height="80" as="geometry" />
        </mxCell>
        <mxCell id="BXFXok5KzH3ZuiNn4VCX-32" value="ActiveDirectory" style="pointerEvents=1;shadow=0;dashed=0;html=1;strokeColor=none;fillColor=#505050;labelPosition=center;verticalLabelPosition=bottom;verticalAlign=top;outlineConnect=0;align=center;shape=mxgraph.office.security.active_directory;fontSize=8;" parent="1" vertex="1">
          <mxGeometry x="-1120" y="110" width="100" height="80" as="geometry" />
        </mxCell>
        <mxCell id="BXFXok5KzH3ZuiNn4VCX-34" value="&lt;font style=&quot;font-size: 12px;&quot;&gt;{userInfo}&lt;/font&gt;" style="endArrow=open;html=1;endSize=12;startArrow=open;startSize=14;startFill=0;edgeStyle=orthogonalEdgeStyle;align=center;verticalAlign=bottom;endFill=0;strokeWidth=2;fillColor=#ffffff;fontSize=12;" parent="1" edge="1">
          <mxGeometry y="3" relative="1" as="geometry">
            <mxPoint x="-1028" y="150" as="sourcePoint" />
            <mxPoint x="-958" y="150" as="targetPoint" />
          </mxGeometry>
        </mxCell>
        <mxCell id="BXFXok5KzH3ZuiNn4VCX-35" value="{token}" style="endArrow=open;html=1;endSize=12;startArrow=open;startSize=14;startFill=0;edgeStyle=orthogonalEdgeStyle;align=center;verticalAlign=bottom;endFill=0;strokeWidth=2;fillColor=#ffffff;fontSize=12;exitX=1;exitY=0.5;exitDx=0;exitDy=0;entryX=-0.002;entryY=0.503;entryDx=0;entryDy=0;entryPerimeter=0;" parent="1" source="BXFXok5KzH3ZuiNn4VCX-30" target="BXFXok5KzH3ZuiNn4VCX-9" edge="1">
          <mxGeometry y="3" relative="1" as="geometry">
            <mxPoint x="-1018" y="160" as="sourcePoint" />
            <mxPoint x="-948" y="160" as="targetPoint" />
          </mxGeometry>
        </mxCell>
        <mxCell id="BXFXok5KzH3ZuiNn4VCX-37" value="Insights App" style="shape=umlFrame;whiteSpace=wrap;html=1;width=140;height=50;boundedLbl=1;verticalAlign=middle;align=center;spacingLeft=5;fontSize=12;" parent="1" vertex="1">
          <mxGeometry x="-800" y="229" width="680" height="161" as="geometry" />
        </mxCell>
        <mxCell id="BXFXok5KzH3ZuiNn4VCX-38" value="" style="shape=image;html=1;verticalAlign=top;verticalLabelPosition=bottom;labelBackgroundColor=#ffffff;imageAspect=0;aspect=fixed;image=https://cdn0.iconfinder.com/data/icons/logos-brands-in-colors/128/react-128.png;fontSize=12;align=left;" parent="1" vertex="1">
          <mxGeometry x="-792" y="241" width="30" height="30" as="geometry" />
        </mxCell>
        <mxCell id="BXFXok5KzH3ZuiNn4VCX-39" value="/app/sales-app" style="html=1;align=center;verticalAlign=top;rounded=1;absoluteArcSize=1;arcSize=10;dashed=0;fontSize=12;" parent="1" vertex="1">
          <mxGeometry x="-650" y="241" width="130" height="30" as="geometry" />
        </mxCell>
        <mxCell id="BXFXok5KzH3ZuiNn4VCX-40" value="/app/benchmarking" style="html=1;align=center;verticalAlign=top;rounded=1;absoluteArcSize=1;arcSize=10;dashed=0;fontSize=12;" parent="1" vertex="1">
          <mxGeometry x="-482" y="241" width="152" height="30" as="geometry" />
        </mxCell>
        <mxCell id="BXFXok5KzH3ZuiNn4VCX-41" value="/app/market-reports" style="html=1;align=center;verticalAlign=top;rounded=1;absoluteArcSize=1;arcSize=10;dashed=0;fontSize=12;" parent="1" vertex="1">
          <mxGeometry x="-290" y="241" width="140" height="30" as="geometry" />
        </mxCell>
        <mxCell id="BXFXok5KzH3ZuiNn4VCX-42" value="Modules" style="shape=process2;fixedSize=1;size=5;fontStyle=1;fontSize=12;align=center;" parent="1" vertex="1">
          <mxGeometry x="-650" y="296" width="500" height="30" as="geometry" />
        </mxCell>
        <mxCell id="BXFXok5KzH3ZuiNn4VCX-43" value="Context - Apollo Client/Theme/Token/Global States" style="shape=process2;fixedSize=1;size=5;fontStyle=1;fontSize=12;align=center;" parent="1" vertex="1">
          <mxGeometry x="-650" y="348" width="500" height="30" as="geometry" />
        </mxCell>
        <mxCell id="BXFXok5KzH3ZuiNn4VCX-44" value="Insights Gateway" style="shape=umlFrame;tabWidth=110;tabHeight=30;tabPosition=left;html=1;boundedLbl=1;labelInHeader=1;width=140;height=30;fontSize=12;align=center;dashed=1;" parent="1" vertex="1">
          <mxGeometry x="-800" y="429" width="680" height="81" as="geometry" />
        </mxCell>
        <mxCell id="BXFXok5KzH3ZuiNn4VCX-47" value="Reverse Proxy/Load Blancer" style="html=1;align=center;verticalAlign=top;rounded=1;absoluteArcSize=1;arcSize=10;dashed=1;fontSize=12;" parent="1" vertex="1">
          <mxGeometry x="-650" y="463" width="160" height="30" as="geometry" />
        </mxCell>
        <mxCell id="BXFXok5KzH3ZuiNn4VCX-48" value="Audit/Click Stream" style="html=1;align=center;verticalAlign=top;rounded=1;absoluteArcSize=1;arcSize=10;dashed=1;fontSize=12;" parent="1" vertex="1">
          <mxGeometry x="-470" y="463" width="152" height="30" as="geometry" />
        </mxCell>
        <mxCell id="BXFXok5KzH3ZuiNn4VCX-49" value="Access Control/Rate Limiter" style="html=1;align=center;verticalAlign=top;rounded=1;absoluteArcSize=1;arcSize=10;dashed=1;fontSize=12;" parent="1" vertex="1">
          <mxGeometry x="-300" y="463" width="160" height="30" as="geometry" />
        </mxCell>
        <mxCell id="BXFXok5KzH3ZuiNn4VCX-51" value="Insights Service&lt;br&gt;{PM2 Cluster}&amp;nbsp;" style="shape=umlFrame;whiteSpace=wrap;html=1;width=140;height=50;boundedLbl=1;verticalAlign=middle;align=center;spacingLeft=5;fontSize=12;" parent="1" vertex="1">
          <mxGeometry x="-800" y="550" width="680" height="160" as="geometry" />
        </mxCell>
        <mxCell id="BXFXok5KzH3ZuiNn4VCX-53" value="SalesAppResolver" style="html=1;align=center;verticalAlign=top;rounded=1;absoluteArcSize=1;arcSize=10;dashed=0;fontSize=12;" parent="1" vertex="1">
          <mxGeometry x="-650" y="562" width="130" height="30" as="geometry" />
        </mxCell>
        <mxCell id="BXFXok5KzH3ZuiNn4VCX-54" value="BenchmarkingResolver" style="html=1;align=center;verticalAlign=top;rounded=1;absoluteArcSize=1;arcSize=10;dashed=0;fontSize=12;" parent="1" vertex="1">
          <mxGeometry x="-482" y="562" width="152" height="30" as="geometry" />
        </mxCell>
        <mxCell id="BXFXok5KzH3ZuiNn4VCX-55" value="DataVisibilityResolver" style="html=1;align=center;verticalAlign=top;rounded=1;absoluteArcSize=1;arcSize=10;dashed=0;fontSize=12;" parent="1" vertex="1">
          <mxGeometry x="-290" y="562" width="140" height="30" as="geometry" />
        </mxCell>
        <mxCell id="BXFXok5KzH3ZuiNn4VCX-56" value="Services - BM/MR/SAO/Security/Identity/Network/Carriers" style="shape=process2;fixedSize=1;size=5;fontStyle=1;fontSize=12;align=center;" parent="1" vertex="1">
          <mxGeometry x="-650" y="613" width="500" height="30" as="geometry" />
        </mxCell>
        <mxCell id="BXFXok5KzH3ZuiNn4VCX-57" value="Providers - TypeORM/Mongodb/RestClient" style="shape=process2;fixedSize=1;size=5;fontStyle=1;fontSize=12;align=center;" parent="1" vertex="1">
          <mxGeometry x="-650" y="659" width="500" height="30" as="geometry" />
        </mxCell>
        <mxCell id="BXFXok5KzH3ZuiNn4VCX-59" value="{token}" style="endArrow=open;html=1;endSize=12;startArrow=open;startSize=14;startFill=0;edgeStyle=orthogonalEdgeStyle;align=center;verticalAlign=bottom;endFill=0;strokeWidth=2;fillColor=#ffffff;fontSize=12;exitX=0.527;exitY=1.019;exitDx=0;exitDy=0;entryX=0.528;entryY=-0.011;entryDx=0;entryDy=0;entryPerimeter=0;exitPerimeter=0;" parent="1" source="BXFXok5KzH3ZuiNn4VCX-9" target="BXFXok5KzH3ZuiNn4VCX-37" edge="1">
          <mxGeometry x="0.6044" y="21" relative="1" as="geometry">
            <mxPoint x="-477.3599999999997" y="193" as="sourcePoint" />
            <mxPoint x="-477.3599999999997" y="230.966" as="targetPoint" />
            <mxPoint as="offset" />
          </mxGeometry>
        </mxCell>
        <mxCell id="BXFXok5KzH3ZuiNn4VCX-60" value="GraphQL" style="endArrow=open;html=1;endSize=12;startArrow=open;startSize=14;startFill=0;edgeStyle=orthogonalEdgeStyle;align=center;verticalAlign=bottom;endFill=0;strokeWidth=2;fillColor=#ffffff;fontSize=12;exitX=0.233;exitY=1.007;exitDx=0;exitDy=0;exitPerimeter=0;entryX=0.233;entryY=-0.012;entryDx=0;entryDy=0;entryPerimeter=0;" parent="1" edge="1">
          <mxGeometry x="0.5649" y="42" relative="1" as="geometry">
            <mxPoint x="-645.56" y="391.12699999999995" as="sourcePoint" />
            <mxPoint x="-645.56" y="428.028" as="targetPoint" />
            <mxPoint as="offset" />
          </mxGeometry>
        </mxCell>
        <mxCell id="BXFXok5KzH3ZuiNn4VCX-63" value="Restful" style="endArrow=open;html=1;endSize=12;startArrow=open;startSize=14;startFill=0;edgeStyle=orthogonalEdgeStyle;align=center;verticalAlign=bottom;endFill=0;strokeWidth=2;fillColor=#ffffff;fontSize=12;exitX=0.765;exitY=1;exitDx=0;exitDy=0;exitPerimeter=0;entryX=0.765;entryY=-0.002;entryDx=0;entryDy=0;entryPerimeter=0;" parent="1" source="BXFXok5KzH3ZuiNn4VCX-37" target="BXFXok5KzH3ZuiNn4VCX-44" edge="1">
          <mxGeometry x="0.5449" y="30" relative="1" as="geometry">
            <mxPoint x="-631.56" y="401.12699999999995" as="sourcePoint" />
            <mxPoint x="-631.56" y="438.028" as="targetPoint" />
            <mxPoint as="offset" />
          </mxGeometry>
        </mxCell>
        <mxCell id="BXFXok5KzH3ZuiNn4VCX-64" value="" style="shape=image;html=1;verticalAlign=top;verticalLabelPosition=bottom;labelBackgroundColor=#ffffff;imageAspect=0;aspect=fixed;image=https://cdn2.iconfinder.com/data/icons/nodejs-1/128/nodejs-128.png;dashed=1;fontSize=12;align=center;" parent="1" vertex="1">
          <mxGeometry x="-792" y="562" width="30" height="30" as="geometry" />
        </mxCell>
        <mxCell id="BXFXok5KzH3ZuiNn4VCX-65" value="Feign Client" style="endArrow=open;html=1;endSize=12;startArrow=open;startSize=14;startFill=0;edgeStyle=orthogonalEdgeStyle;align=center;verticalAlign=bottom;endFill=0;strokeWidth=2;fillColor=#ffffff;fontSize=12;exitX=0.524;exitY=1.037;exitDx=0;exitDy=0;exitPerimeter=0;" parent="1" source="BXFXok5KzH3ZuiNn4VCX-44" edge="1">
          <mxGeometry x="0.5649" y="42" relative="1" as="geometry">
            <mxPoint x="-635.56" y="447.12699999999995" as="sourcePoint" />
            <mxPoint x="-444" y="550" as="targetPoint" />
            <mxPoint as="offset" />
            <Array as="points">
              <mxPoint x="-444" y="536" />
              <mxPoint x="-444" y="558" />
            </Array>
          </mxGeometry>
        </mxCell>
        <mxCell id="BXFXok5KzH3ZuiNn4VCX-66" value="Redis" style="shape=image;html=1;verticalAlign=top;verticalLabelPosition=bottom;labelBackgroundColor=#ffffff;imageAspect=0;aspect=fixed;image=https://cdn4.iconfinder.com/data/icons/redis-2/1451/Untitled-2-128.png;dashed=1;fontSize=9;align=center;opacity=50;" parent="1" vertex="1">
          <mxGeometry x="-955" y="550" width="80" height="80" as="geometry" />
        </mxCell>
        <mxCell id="BXFXok5KzH3ZuiNn4VCX-68" value="{cache}" style="endArrow=open;html=1;endSize=12;startArrow=open;startSize=14;startFill=0;edgeStyle=orthogonalEdgeStyle;align=center;verticalAlign=bottom;endFill=0;strokeWidth=2;fillColor=#ffffff;fontSize=12;exitX=1;exitY=0.5;exitDx=0;exitDy=0;dashed=1;" parent="1" source="BXFXok5KzH3ZuiNn4VCX-66" edge="1">
          <mxGeometry y="3" relative="1" as="geometry">
            <mxPoint x="-860" y="160" as="sourcePoint" />
            <mxPoint x="-800" y="590" as="targetPoint" />
          </mxGeometry>
        </mxCell>
        <mxCell id="BXFXok5KzH3ZuiNn4VCX-69" value="Kafka" style="points=[[0,0,0],[0.25,0,0],[0.5,0,0],[0.75,0,0],[1,0,0],[0,1,0],[0.25,1,0],[0.5,1,0],[0.75,1,0],[1,1,0],[0,0.25,0],[0,0.5,0],[0,0.75,0],[1,0.25,0],[1,0.5,0],[1,0.75,0]];outlineConnect=0;fontColor=#232F3E;gradientColor=#945DF2;gradientDirection=north;fillColor=#5A30B5;strokeColor=#ffffff;dashed=1;verticalLabelPosition=bottom;verticalAlign=top;align=center;html=1;fontSize=12;fontStyle=0;aspect=fixed;shape=mxgraph.aws4.resourceIcon;resIcon=mxgraph.aws4.managed_streaming_for_kafka;opacity=50;" parent="1" vertex="1">
          <mxGeometry x="-1060" y="630" width="78" height="78" as="geometry" />
        </mxCell>
        <mxCell id="BXFXok5KzH3ZuiNn4VCX-70" value="{Async Messaging Calls}" style="endArrow=open;html=1;endSize=12;startArrow=open;startSize=14;startFill=0;edgeStyle=orthogonalEdgeStyle;align=center;verticalAlign=bottom;endFill=0;strokeWidth=2;fillColor=#ffffff;fontSize=12;entryX=-0.002;entryY=0.748;entryDx=0;entryDy=0;entryPerimeter=0;dashed=1;" parent="1" source="BXFXok5KzH3ZuiNn4VCX-69" target="BXFXok5KzH3ZuiNn4VCX-51" edge="1">
          <mxGeometry y="3" relative="1" as="geometry">
            <mxPoint x="-865" y="600" as="sourcePoint" />
            <mxPoint x="-790" y="600" as="targetPoint" />
          </mxGeometry>
        </mxCell>
        <mxCell id="BXFXok5KzH3ZuiNn4VCX-71" value="DataLake" style="outlineConnect=0;fontColor=#232F3E;gradientColor=none;fillColor=#5A30B5;strokeColor=none;dashed=1;verticalLabelPosition=bottom;verticalAlign=top;align=center;html=1;fontSize=12;fontStyle=0;aspect=fixed;pointerEvents=1;shape=mxgraph.aws4.data_lake_resource_icon;opacity=50;" parent="1" vertex="1">
          <mxGeometry x="-628" y="790" width="140" height="140" as="geometry" />
        </mxCell>
        <mxCell id="BXFXok5KzH3ZuiNn4VCX-72" value="Restful Endpoints" style="shadow=0;dashed=0;html=1;strokeColor=none;fillColor=#EF8F21;labelPosition=center;verticalLabelPosition=bottom;verticalAlign=top;align=center;outlineConnect=0;shape=mxgraph.veeam.2d.restful_apis;fontSize=9;opacity=50;" parent="1" vertex="1">
          <mxGeometry x="-443" y="790" width="140" height="140" as="geometry" />
        </mxCell>
        <mxCell id="BXFXok5KzH3ZuiNn4VCX-73" value="App Database" style="strokeWidth=2;html=1;shape=mxgraph.flowchart.database;whiteSpace=wrap;fontSize=9;opacity=50;align=center;" parent="1" vertex="1">
          <mxGeometry x="-778" y="790" width="100" height="140" as="geometry" />
        </mxCell>
        <mxCell id="BXFXok5KzH3ZuiNn4VCX-74" value="IDS Datamart" style="shape=datastore;whiteSpace=wrap;html=1;fontSize=9;opacity=50;align=center;" parent="1" vertex="1">
          <mxGeometry x="-1020" y="785" width="110" height="145" as="geometry" />
        </mxCell>
        <mxCell id="BXFXok5KzH3ZuiNn4VCX-75" value="{DDL: Views}" style="endArrow=open;html=1;endSize=12;startArrow=open;startSize=14;startFill=0;edgeStyle=orthogonalEdgeStyle;align=center;verticalAlign=bottom;endFill=0;strokeWidth=2;fillColor=#ffffff;fontSize=12;entryX=-0.012;entryY=0.574;entryDx=0;entryDy=0;entryPerimeter=0;dashed=1;exitX=1.011;exitY=0.567;exitDx=0;exitDy=0;exitPerimeter=0;" parent="1" source="BXFXok5KzH3ZuiNn4VCX-74" target="BXFXok5KzH3ZuiNn4VCX-73" edge="1">
          <mxGeometry y="3" relative="1" as="geometry">
            <mxPoint x="-972" y="679.04" as="sourcePoint" />
            <mxPoint x="-791.3599999999999" y="679.6799999999998" as="targetPoint" />
          </mxGeometry>
        </mxCell>
        <mxCell id="BXFXok5KzH3ZuiNn4VCX-77" value="" style="endArrow=open;html=1;endSize=12;startArrow=open;startSize=14;startFill=0;edgeStyle=orthogonalEdgeStyle;align=center;verticalAlign=bottom;endFill=0;strokeWidth=2;fillColor=#ffffff;fontSize=12;dashed=1;" parent="1" edge="1">
          <mxGeometry x="0.2156" y="24" relative="1" as="geometry">
            <mxPoint x="-576" y="710" as="sourcePoint" />
            <mxPoint x="-576" y="792.2621437173825" as="targetPoint" />
            <mxPoint as="offset" />
            <Array as="points">
              <mxPoint x="-576" y="710" />
            </Array>
          </mxGeometry>
        </mxCell>
        <mxCell id="BXFXok5KzH3ZuiNn4VCX-79" value="" style="endArrow=open;html=1;endSize=12;startArrow=open;startSize=14;startFill=0;edgeStyle=orthogonalEdgeStyle;align=center;verticalAlign=bottom;endFill=0;strokeWidth=2;fillColor=#ffffff;fontSize=12;exitX=0.854;exitY=1.013;exitDx=0;exitDy=0;exitPerimeter=0;" parent="1" target="BXFXok5KzH3ZuiNn4VCX-72" edge="1">
          <mxGeometry x="0.2156" y="24" relative="1" as="geometry">
            <mxPoint x="-373.27999999999975" y="712.0799999999999" as="sourcePoint" />
            <mxPoint x="-373" y="770" as="targetPoint" />
            <mxPoint as="offset" />
            <Array as="points" />
          </mxGeometry>
        </mxCell>
        <mxCell id="BXFXok5KzH3ZuiNn4VCX-81" value="" style="endArrow=open;html=1;endSize=12;startArrow=open;startSize=14;startFill=0;edgeStyle=orthogonalEdgeStyle;align=center;verticalAlign=bottom;endFill=0;strokeWidth=2;fillColor=#ffffff;fontSize=12;exitX=0.174;exitY=1;exitDx=0;exitDy=0;exitPerimeter=0;entryX=0.5;entryY=0;entryDx=0;entryDy=0;entryPerimeter=0;" parent="1" target="BXFXok5KzH3ZuiNn4VCX-73" edge="1">
          <mxGeometry x="0.2156" y="24" relative="1" as="geometry">
            <mxPoint x="-727.6800000000001" y="710" as="sourcePoint" />
            <mxPoint x="-255" y="800" as="targetPoint" />
            <mxPoint as="offset" />
            <Array as="points" />
          </mxGeometry>
        </mxCell>
        <mxCell id="u96J1Pz36pWBYjRKThUW-1" value="ElasticSearch Log Monitor" style="points=[[0,0,0],[0.25,0,0],[0.5,0,0],[0.75,0,0],[1,0,0],[0,1,0],[0.25,1,0],[0.5,1,0],[0.75,1,0],[1,1,0],[0,0.25,0],[0,0.5,0],[0,0.75,0],[1,0.25,0],[1,0.5,0],[1,0.75,0]];outlineConnect=0;fontColor=#232F3E;gradientColor=#945DF2;gradientDirection=north;fillColor=#5A30B5;strokeColor=#ffffff;dashed=0;verticalLabelPosition=bottom;verticalAlign=top;align=center;html=1;fontSize=12;fontStyle=0;aspect=fixed;shape=mxgraph.aws4.resourceIcon;resIcon=mxgraph.aws4.elasticsearch_service;opacity=50;" parent="1" vertex="1">
          <mxGeometry x="-262" y="790" width="140" height="140" as="geometry" />
        </mxCell>
        <mxCell id="u96J1Pz36pWBYjRKThUW-3" value="" style="endArrow=open;html=1;endSize=12;startArrow=open;startSize=14;startFill=0;edgeStyle=orthogonalEdgeStyle;align=center;verticalAlign=bottom;endFill=0;strokeWidth=2;fillColor=#ffffff;fontSize=12;exitX=0.893;exitY=1.013;exitDx=0;exitDy=0;exitPerimeter=0;dashed=1;" parent="1" source="BXFXok5KzH3ZuiNn4VCX-51" target="u96J1Pz36pWBYjRKThUW-1" edge="1">
          <mxGeometry x="0.2156" y="24" relative="1" as="geometry">
            <mxPoint x="-363.27999999999975" y="722.0799999999999" as="sourcePoint" />
            <mxPoint x="-363" y="800" as="targetPoint" />
            <mxPoint as="offset" />
            <Array as="points" />
          </mxGeometry>
        </mxCell>
        <mxCell id="ht26s7SFJDucvxVH2_rS-1" value="&lt;br&gt;" style="endArrow=open;html=1;endSize=12;startArrow=open;startSize=14;startFill=0;edgeStyle=orthogonalEdgeStyle;align=center;verticalAlign=bottom;endFill=0;strokeWidth=2;fillColor=#ffffff;fontSize=12;exitX=0.631;exitY=1.05;exitDx=0;exitDy=0;exitPerimeter=0;" parent="1" source="BXFXok5KzH3ZuiNn4VCX-2" edge="1">
          <mxGeometry x="0.6044" y="21" relative="1" as="geometry">
            <mxPoint x="-431.6399999999999" y="201.51999999999998" as="sourcePoint" />
            <mxPoint x="-446" y="110" as="targetPoint" />
            <mxPoint as="offset" />
          </mxGeometry>
        </mxCell>
      </root>
    </mxGraphModel>
  </diagram>
</mxfile>
